<svg xmlns="http://www.w3.org/2000/svg" version="1.1" xmlns:xlink="http://www.w3.org/1999/xlink" xmlns:svgjs="http://svgjs.dev/svgjs" width="1440" height="560" preserveAspectRatio="none" viewBox="0 0 1440 560"><g mask="url(&quot;#SvgjsMask1030&quot;)" fill="none"><rect width="1440" height="560" x="0" y="0" fill="#0e2a47"></rect><path d="M332.865,673.078C386.964,673.162,444.936,660.589,472.244,613.888C499.747,566.855,484.436,508.806,456.154,462.237C429.113,417.712,384.914,382.253,332.865,384.388C283.59,386.409,251.467,429.49,225.933,471.681C199.06,516.085,169.898,567.614,194.237,613.455C219.52,661.073,278.951,672.994,332.865,673.078" fill="rgba(28, 83, 142, 0.4)" class="triangle-float1"></path><path d="M567.746,286.021C584.822,285.273,601.089,278.618,610.345,264.249C620.46,248.546,623.887,228.788,615.297,212.201C606.042,194.328,587.856,181.158,567.746,181.988C548.704,182.774,536.038,199.341,526.542,215.865C517.092,232.31,508.548,251.931,518.154,268.286C527.683,284.511,548.948,286.844,567.746,286.021" fill="rgba(28, 83, 142, 0.4)" class="triangle-float1"></path><path d="M569.244,513.427C601.799,512.416,632.034,498.051,649.812,470.76C669.519,440.508,680.254,401.842,662.36,370.483C644.351,338.922,605.575,330.265,569.244,329.565C531.284,328.834,489.532,334.396,469.7,366.772C449.225,400.198,457.502,443.616,479.516,476.049C499.019,504.782,534.534,514.505,569.244,513.427" fill="rgba(28, 83, 142, 0.4)" class="triangle-float2"></path><path d="M191.6875412968169 471.16387947231624L151.63205275649995 340.14827989555914 60.671941720059806 511.2193680126332z" fill="rgba(28, 83, 142, 0.4)" class="triangle-float1"></path><path d="M1125.128,592.266C1168.751,593.065,1211.838,574.612,1234.064,537.068C1256.677,498.871,1253.794,451.144,1231.341,412.852C1209.156,375.017,1168.901,348.521,1125.128,351.285C1084.952,353.822,1059.583,389.85,1039.86,424.944C1020.68,459.073,1005.115,498.32,1022.89,533.201C1042.043,570.785,1082.952,591.494,1125.128,592.266" fill="rgba(28, 83, 142, 0.4)" class="triangle-float2"></path><path d="M1287.3278011675654 456.3766665667258L1397.5841619865946 498.8207221520354 1383.2108814729509 396.54951717391947z" fill="rgba(28, 83, 142, 0.4)" class="triangle-float1"></path></g><defs><mask id="SvgjsMask1030"><rect width="1440" height="560" fill="#ffffff"></rect></mask><style>
                @keyframes float1 {
                    0%{transform: translate(0, 0)}
                    50%{transform: translate(-10px, 0)}
                    100%{transform: translate(0, 0)}
                }

                .triangle-float1 {
                    animation: float1 5s infinite;
                }

                @keyframes float2 {
                    0%{transform: translate(0, 0)}
                    50%{transform: translate(-5px, -5px)}
                    100%{transform: translate(0, 0)}
                }

                .triangle-float2 {
                    animation: float2 4s infinite;
                }

                @keyframes float3 {
                    0%{transform: translate(0, 0)}
                    50%{transform: translate(0, -10px)}
                    100%{transform: translate(0, 0)}
                }

                .triangle-float3 {
                    animation: float3 6s infinite;
                }
            </style></defs></svg>