<svg xmlns="http://www.w3.org/2000/svg" id="eWSLi8rbaTl1" width="700" height="400" shape-rendering="geometricPrecision" style="background-color:transparent" text-rendering="geometricPrecision"><style>@keyframes eWSLi8rbaTl2_s_do{0%{stroke-dashoffset:0}to{stroke-dashoffset:300}}@keyframes eWSLi8rbaTl3_s_do{0%{stroke-dashoffset:0}to{stroke-dashoffset:360}}@keyframes eWSLi8rbaTl4_s_do{0%{stroke-dashoffset:0}to{stroke-dashoffset:500}}@keyframes eWSLi8rbaTl5_s_do{0%{stroke-dashoffset:0}to{stroke-dashoffset:360}}</style><defs><linearGradient id="eWSLi8rbaTl2-stroke" x1="0" x2="1" y1=".5" y2=".5" gradientUnits="objectBoundingBox" spreadMethod="pad"><stop id="eWSLi8rbaTl2-stroke-0" offset="0%" stop-color="#FFFF"/><stop id="eWSLi8rbaTl2-stroke-1" offset="49%" stop-color="#FFFF"/><stop id="eWSLi8rbaTl2-stroke-2" offset="100%" stop-color="#FFFF"/></linearGradient><linearGradient id="eWSLi8rbaTl3-stroke" x1="0" x2="1" y1=".5" y2=".5" gradientUnits="objectBoundingBox" spreadMethod="pad"><stop id="eWSLi8rbaTl3-stroke-0" offset="0%" stop-color="#FFFF"/><stop id="eWSLi8rbaTl3-stroke-1" offset="48%" stop-color="#FFFF"/><stop id="eWSLi8rbaTl3-stroke-2" offset="100%" stop-color="#FFFF"/></linearGradient><linearGradient id="eWSLi8rbaTl4-stroke" x1="0" x2="1" y1=".5" y2=".5" gradientUnits="objectBoundingBox" spreadMethod="pad"><stop id="eWSLi8rbaTl4-stroke-0" offset="0%" stop-color="#FFFF"/><stop id="eWSLi8rbaTl4-stroke-1" offset="48%" stop-color="#FFFF"/><stop id="eWSLi8rbaTl4-stroke-2" offset="100%" stop-color="#FFFF"/></linearGradient><radialGradient id="eWSLi8rbaTl5-stroke" cx="0" cy="0" r=".5" gradientTransform="translate(.5 .5)" gradientUnits="objectBoundingBox" spreadMethod="pad"><stop id="eWSLi8rbaTl5-stroke-0" offset="0%" stop-color="rgba(34,56,133,0.52)"/><stop id="eWSLi8rbaTl5-stroke-1" offset="100%" stop-color="rgba(255,176,195,0.77)"/></radialGradient></defs><path fill="none" stroke="url(#eWSLi8rbaTl2-stroke)" stroke-dasharray="0.01,300" stroke-linecap="round" stroke-width="40" d="M60.541 192.775C21.003 149.133 93.619 74.101 146.859 55.492c25.395-8.877 61.369-18.89 84.46-.683 42.518 33.522 12.614 96.213-20.418 126.355-13.579 12.39-44.522 36.551-69.611 27.32-33.104-12.18-16.823-54.57-5.57-73.081 24.076-39.6 95.401-87.473 159.642-71.715 82.362 20.203-34.859 121.117 5.569 152.992 5.987 4.72 20.191 5.768 27.844 5.464 79.761-3.173 61.157-66.684 111.378-71.032 39.017-3.378 25.565 56.863 91.886 71.032 51.281 10.956 113.471-35.497 103.024-72.398-11.11-39.243-64.629-56.267-100.24-19.807-63.225 64.731-24.457 130.035-131.796 180.995-33.183 15.754-73.72 28.092-113.234 30.735-67.503 4.516-159.25-31.311-119.73-89.473" opacity=".16" style="animation:eWSLi8rbaTl2_s_do 12000ms linear infinite normal forwards"/><path fill="none" stroke="url(#eWSLi8rbaTl3-stroke)" stroke-dasharray="0.01,72" stroke-linecap="round" stroke-width="2" d="M548.837 44.625c26.916-47.426 99.388-12.559 103.05 22.466 3.25 31.103-70.555 52.436-66.827 90.84.88 9.061 10.33 16.182 16.706 23.221 22.66 25.013 36.151 53.013 25.06 83.326-6.256 17.102-71.228 57.874-88.174 41.664-16.765-16.039 14.015-20.91 28.773-18.442 44.4 7.426 39.2 48.179 11.138 65.569-18.862 11.688-40.658 17.627-64.97 18.44-12.76.427-28.763.009-38.054-7.512-14.587-11.808-11.245-34.498-15.779-49.176-8.946-28.966-56.38-49.882-94.67-41.664-50.049 10.742-52.095 78.459-20.42 101.768 15.367 11.308 43.973 9.148 51.048-7.513 2.032-4.786-3.043-10.394-5.569-14.343-15.043-23.525-33.73-41.729-71.467-43.712-33.131-1.742-71.204 3.688-103.024 10.245-46.01 9.48-118.415 48.817-164.282 18.44-30.665-20.309 12.758-68.343 39.91-79.91 32.213-13.724 72.027-3.505 106.737-6.148 52.23-3.976 154.45-47.46 159.641-89.473 2.788-22.568-26.79-36.532-53.832-40.297-66.713-9.287-138.895-1.825-204.192-19.124-38.478-10.193-22.45-66.152 9.281-77.179 93.903-32.63 199.99 28.917 284.013 53.274 32.624 9.458 97.636-12.294 85.57-86.837" style="animation:eWSLi8rbaTl3_s_do 12000ms linear infinite normal forwards"/><path fill="none" stroke="url(#eWSLi8rbaTl4-stroke)" stroke-dasharray="0.01,500" stroke-linecap="round" stroke-width="20" d="M24.64 109.436c9.778-43.17 95.295-75.505 126.229-37.565 28.48 34.93-79.557 105.04-48.264 133.185 9.98 8.975 99.165-4.578 116.018-5.464 93.293-4.904 184.236 9.27 259.88 51.908 26.812 15.112 73.178 45.294 53.833 73.764-7.509 11.052-27.179 16.535-41.766 20.49-72.265 19.592-195.887 17.365-222.755-49.86-8.777-21.959-7.22-41.874 11.138-60.786 36.96-38.078 109.24-44.427 143.862-82.643 45.553-50.282-10.104-104.321-87.245-99.718-42.686 2.547-79.979 61.797-30.63 76.496 68.898 20.521 142.096-9.35 213.474 30.735 43.563 24.464 12.89 75.964 54.76 100.4 23.012 13.431 92.928 11.472 80.75 45.079-20.77 57.315-107.567 28.154-159.642 20.49-63.418-9.334-87.982-26.345-135.509-55.323-16.857-10.279-35.485-18.6-51.048-30.052-14.03-10.325-24.884-23.548-42.695-30.735-32.915-13.283-81.457-4.093-112.305 8.879-107.103 45.037-54.968 97.087 39.91 113.378 52.63 9.037 163.632-6.147 185.915 89.463" opacity=".2" style="animation:eWSLi8rbaTl4_s_do 12000ms linear infinite normal forwards"/><path fill="none" stroke="url(#eWSLi8rbaTl5-stroke)" stroke-dasharray="0.01,72" stroke-linecap="round" stroke-width="4" d="M26.29 129.845c0-15.466 7.023-31.88 10.21-47.127 3.676-17.583-1.283-51.872 15.779-65.568 7.255-5.824 10.188-4.44 21.347-4.781 44.096-1.352 75.3 40.167 79.82 67.617 1.685 10.227-7.824 56.034 0 59.42 46.396 20.084 166.203-38.33 186.558 28.004 16.765 54.634-138.807 98.866-184.701 120.891-12.842 6.163-58.92 25.249-51.048 41.663 12.518 26.1 135.027 10.7 161.497.683 11.658-4.412 21.731-12.191 30.63-19.124 4.358-3.396 8.747-6.773 12.993-10.245 1.035-.846 2.481-3.848 2.785-2.732 2.487 9.153-67.93 74.695-32.485 79.911 27.17 3.999 71.62-44.942 80.748-56.006 41.238-49.981 50.82-106.475 80.749-159.14 9.536-16.78 28.861-53.791 57.545-59.42 39.21-7.694 46.887 27.192 50.12 47.81 2.46 15.69 3.503 32.738 1.856 48.493-2.885 27.598-40.409 109.494-6.497 129.77 12.53 7.491 29.337 7.793 44.551 6.147 65.55-7.094 40.14-69.395 71.467-99.035 10.726-10.148 32.655 15.334 24.132 34.15" style="animation:eWSLi8rbaTl5_s_do 12000ms linear infinite normal forwards"/></svg>